# xmcd
#
# Track frame offsets: 
#        150
#        15712
#        31210
#        45425
#        59692
#        74940
#        89592
#        104750
#        121345
#        136207
#        149155
#        161542
#        176762
#        191932
#        205997
#        220287
#        234567
#        249600
#        265050
#        277987
#        293457
#        307767
#        321662
#        336380
#
# Disc length: 4660 seconds
#
# Revision: 4
# Processed by: cddbd v1.5.2PL0 Copyright (c) Steve Scherf et al.
# Submitted via: ExactAudioCopy v1.1
#
DISCID=85123218
DTITLE=Jimmie Rodgers - The Singing Brakeman - Disc 5
DYEAR=1992
DGENRE=Country
TTITLE0=Roll Along Kentucky Moon (alt - take 1) (mono)
TTITLE1=Roll Along Kentucky Moon (master - take 2) (mono)
TTITLE2=Hobo's Meditation (master - take 1) (mono)
TTITLE3=Hobo's Meditation (alt - take 2) (mono)
TTITLE4=My Time Ain't Long (alt - take 1) (mono)
TTITLE5=Ninety Nine Year Blues (mono)
TTITLE6=Mississippi Moon (master - take 5) (mono)
TTITLE7=Mississippi Moon (alt - take 3) (mono)
TTITLE8=Down The Old Road To Home (mono)
TTITLE9=Blue Yodel No. 10 (Ground Hog Rootin' In My Backyard) (mono)
TTITLE10=Home Call (mono)
TTITLE11=Mother, The Queen Of My Heart (mono)
TTITLE12=Rock All My Babies To Sleep (mono)
TTITLE13=Whippin' That Old T.B. (alt - take 1) (mono)
TTITLE14=Whippin' That Old T.B. (master - take 2) (mono)
TTITLE15=No Hard Times (master - take 2A) (mono)
TTITLE16=No Hard Times (alt - take 3) (mono)
TTITLE17=Long Tall Mama Blues (mono)
TTITLE18=Peach Picking Time Down In Georgia (mono)
TTITLE19=Gambling Bar Room Blues (mono)
TTITLE20=I've Only Loved Three Women (mono)
TTITLE21=In The Hills Of Tennessee (mono)
TTITLE22=Prairie Lullaby (mono)
TTITLE23=Miss The Mississippi And You (mono)
EXTD=Bear Family Records  BCD15540\n6 CD Boxed Set with book/discograp
EXTD=hy\n1992  Recorded Aug 1927 - May 1933\nTitles include release ye
EXTD=ar. YEAR: 1992
EXTT0=
EXTT1=
EXTT2=
EXTT3=
EXTT4=
EXTT5=
EXTT6=
EXTT7=
EXTT8=
EXTT9=
EXTT10=
EXTT11=
EXTT12=
EXTT13=
EXTT14=
EXTT15=
EXTT16=
EXTT17=
EXTT18=
EXTT19=
EXTT20=
EXTT21=
EXTT22=
EXTT23=
PLAYORDER=
